<svg xmlns="http://www.w3.org/2000/svg" width="805" height="600"><rect width="805" height="600" x="0" y="0" fill="#FFFFFF" id="backgorund"/><g id="viz"><clipPath id="serieClipPath"><rect x="-50" y="-10" width="805" height="600"/></clipPath><g transform="translate(0,0)"><g transform="translate(50,10)" clip-path="url(#serieClipPath)"><g id="axis"><g transform="translate(0,570)" fill="none" font-size="10" font-family="sans-serif" text-anchor="middle"><path class="domain" stroke="currentColor" d="M0.5,6V0.5H740.5V6"/><g class="tick" opacity="1" transform="translate(0.5,0)"><line stroke="currentColor" y2="6"/><text fill="currentColor" y="9" dy="0.71em">2,010</text></g><g class="tick" opacity="1" transform="translate(74.5,0)"><line stroke="currentColor" y2="6"/><text fill="currentColor" y="9" dy="0.71em">2,011</text></g><g class="tick" opacity="1" transform="translate(148.5,0)"><line stroke="currentColor" y2="6"/><text fill="currentColor" y="9" dy="0.71em">2,012</text></g><g class="tick" opacity="1" transform="translate(222.5,0)"><line stroke="currentColor" y2="6"/><text fill="currentColor" y="9" dy="0.71em">2,013</text></g><g class="tick" opacity="1" transform="translate(296.5,0)"><line stroke="currentColor" y2="6"/><text fill="currentColor" y="9" dy="0.71em">2,014</text></g><g class="tick" opacity="1" transform="translate(370.5,0)"><line stroke="currentColor" y2="6"/><text fill="currentColor" y="9" dy="0.71em">2,015</text></g><g class="tick" opacity="1" transform="translate(444.5,0)"><line stroke="currentColor" y2="6"/><text fill="currentColor" y="9" dy="0.71em">2,016</text></g><g class="tick" opacity="1" transform="translate(518.5,0)"><line stroke="currentColor" y2="6"/><text fill="currentColor" y="9" dy="0.71em">2,017</text></g><g class="tick" opacity="1" transform="translate(592.5,0)"><line stroke="currentColor" y2="6"/><text fill="currentColor" y="9" dy="0.71em">2,018</text></g><g class="tick" opacity="1" transform="translate(666.5,0)"><line stroke="currentColor" y2="6"/><text fill="currentColor" y="9" dy="0.71em">2,019</text></g><g class="tick" opacity="1" transform="translate(740.5,0)"><line stroke="currentColor" y2="6"/><text fill="currentColor" y="9" dy="0.71em">2,020</text></g><text x="740" dy="-5" text-anchor="end" style="font-family: Arial, sans-serif; font-size: 12px; fill: rgb(123, 123, 123); font-weight: bold;">Year</text></g><g transform="translate(0,0)" fill="none" font-size="10" font-family="sans-serif" text-anchor="end"><path class="domain" stroke="currentColor" d="M0.5,570.5V0.5"/><g class="tick" opacity="1" transform="translate(0,570.5)"><line stroke="currentColor" x2="-6"/><text fill="currentColor" x="-9" dy="0.32em">10</text></g><g class="tick" opacity="1" transform="translate(0,526.6538461538462)"><line stroke="currentColor" x2="-6"/><text fill="currentColor" x="-9" dy="0.32em">12</text></g><g class="tick" opacity="1" transform="translate(0,482.8076923076923)"><line stroke="currentColor" x2="-6"/><text fill="currentColor" x="-9" dy="0.32em">14</text></g><g class="tick" opacity="1" transform="translate(0,438.9615384615384)"><line stroke="currentColor" x2="-6"/><text fill="currentColor" x="-9" dy="0.32em">16</text></g><g class="tick" opacity="1" transform="translate(0,395.1153846153846)"><line stroke="currentColor" x2="-6"/><text fill="currentColor" x="-9" dy="0.32em">18</text></g><g class="tick" opacity="1" transform="translate(0,351.2692307692308)"><line stroke="currentColor" x2="-6"/><text fill="currentColor" x="-9" dy="0.32em">20</text></g><g class="tick" opacity="1" transform="translate(0,307.4230769230769)"><line stroke="currentColor" x2="-6"/><text fill="currentColor" x="-9" dy="0.32em">22</text></g><g class="tick" opacity="1" transform="translate(0,263.5769230769231)"><line stroke="currentColor" x2="-6"/><text fill="currentColor" x="-9" dy="0.32em">24</text></g><g class="tick" opacity="1" transform="translate(0,219.7307692307692)"><line stroke="currentColor" x2="-6"/><text fill="currentColor" x="-9" dy="0.32em">26</text></g><g class="tick" opacity="1" transform="translate(0,175.8846153846154)"><line stroke="currentColor" x2="-6"/><text fill="currentColor" x="-9" dy="0.32em">28</text></g><g class="tick" opacity="1" transform="translate(0,132.03846153846152)"><line stroke="currentColor" x2="-6"/><text fill="currentColor" x="-9" dy="0.32em">30</text></g><g class="tick" opacity="1" transform="translate(0,88.1923076923077)"><line stroke="currentColor" x2="-6"/><text fill="currentColor" x="-9" dy="0.32em">32</text></g><g class="tick" opacity="1" transform="translate(0,44.34615384615382)"><line stroke="currentColor" x2="-6"/><text fill="currentColor" x="-9" dy="0.32em">34</text></g><g class="tick" opacity="1" transform="translate(0,0.5)"><line stroke="currentColor" x2="-6"/><text fill="currentColor" x="-9" dy="0.32em">36</text></g><text x="4" text-anchor="start" dominant-baseline="hanging" style="font-family: Arial, sans-serif; font-size: 12px; fill: rgb(123, 123, 123); font-weight: bold;">Inbound</text></g></g><g id="viz"><g><path d="M0,265.2692307692308C37,265.2692307692308,37,234.57692307692307,74,234.57692307692307C111,234.57692307692307,111,195.11538461538456,148,195.11538461538456C185,195.11538461538456,185,173.19230769230765,222,173.19230769230765C259,173.19230769230765,259,144.69230769230774,296,144.69230769230774C333,144.69230769230774,333,105.23076923076924,370,105.23076923076924C407,105.23076923076924,407,92.07692307692307,444,92.07692307692307C481,92.07692307692307,481,54.8076923076923,518,54.8076923076923C555,54.8076923076923,555,30.692307692307647,592,30.692307692307647C629,30.692307692307647,629,17.538461538461476,666,17.538461538461476C703,17.538461538461476,703,550.2692307692308,740,550.2692307692308" stroke="#1f77b4" fill="none"/><text font-family="sans-serif" font-size="10" class="labels" x="666" y="17.538461538461476" dx="0" dy="-4" text-anchor="middle"/></g></g></g><text y="4" x="4" style="font-family: Arial, sans-serif; font-size: 12px; fill: black; font-weight: bold; dominant-baseline: hanging;"/></g><g id="grid"><rect x="0" y="0" width="805" height="600" fill="none" stroke="#ccc"/></g></g></svg>